<mxfile host="app.diagrams.net" modified="2023-08-30T10:01:31.501Z" agent="Mozilla/5.0 (Windows NT 10.0; Win64; x64) AppleWebKit/537.36 (KHTML, like Gecko) Chrome/88.0.4324.146 Safari/537.36" etag="i0rhi8KtK_x7qxfviEJT" version="21.7.0" type="github">
  <diagram name="第 1 页" id="KhUTYXU-4hVIxgEhYGDL">
    <mxGraphModel dx="1050" dy="493" grid="1" gridSize="10" guides="1" tooltips="1" connect="1" arrows="1" fold="1" page="1" pageScale="1" pageWidth="827" pageHeight="1169" math="0" shadow="0">
      <root>
        <mxCell id="0" />
        <mxCell id="1" parent="0" />
        <mxCell id="Yiefxo45Pk9DqrEu7HlN-3" style="edgeStyle=orthogonalEdgeStyle;rounded=0;orthogonalLoop=1;jettySize=auto;html=1;exitX=0.5;exitY=1;exitDx=0;exitDy=0;entryX=0.5;entryY=0;entryDx=0;entryDy=0;" edge="1" parent="1" source="Yiefxo45Pk9DqrEu7HlN-1" target="Yiefxo45Pk9DqrEu7HlN-2">
          <mxGeometry relative="1" as="geometry" />
        </mxCell>
        <mxCell id="Yiefxo45Pk9DqrEu7HlN-1" value="" style="rounded=1;whiteSpace=wrap;html=1;" vertex="1" parent="1">
          <mxGeometry x="130" y="70" width="120" height="60" as="geometry" />
        </mxCell>
        <mxCell id="Yiefxo45Pk9DqrEu7HlN-2" value="" style="rounded=1;whiteSpace=wrap;html=1;" vertex="1" parent="1">
          <mxGeometry x="130" y="200" width="120" height="60" as="geometry" />
        </mxCell>
      </root>
    </mxGraphModel>
  </diagram>
</mxfile>
